<svg xmlns="http://www.w3.org/2000/svg" viewBox="0 0 1200 700">
<defs><linearGradient id="bg" x1="0" y1="0" x2="1" y2="1"><stop stop-color="#0B1020"/><stop offset=".52" stop-color="#15152A"/><stop offset="1" stop-color="#081B28"/></linearGradient><linearGradient id="accent" x1="0" y1="0" x2="1" y2="1"><stop stop-color="#F97316"/><stop offset=".55" stop-color="#F43F5E"/><stop offset="1" stop-color="#FACC15"/></linearGradient><filter id="blur"><feGaussianBlur stdDeviation="55"/></filter><filter id="shadow"><feDropShadow dx="0" dy="24" stdDeviation="22" flood-opacity=".38"/></filter></defs>
<rect width="1200" height="700" rx="34" fill="url(#bg)"/><circle cx="1040" cy="80" r="220" fill="#F97316" opacity=".18" filter="url(#blur)"/><circle cx="620" cy="640" r="190" fill="#F43F5E" opacity=".12" filter="url(#blur)"/>
<rect x="34" y="34" width="1132" height="632" rx="28" fill="#FFFFFF" fill-opacity=".025" stroke="#fff" stroke-opacity=".12"/>
<text x="72" y="84" fill="#fff" font-family="Arial" font-size="17" font-weight="700">Olova</text><text x="1128" y="84" text-anchor="end" fill="#fff" fill-opacity=".45" font-family="Arial" font-size="12">FEATURED PROJECT</text>
<g transform="translate(72,150)"><rect width="450" height="300" rx="26" fill="#fff" fill-opacity=".045"/><rect x="0" y="0" width="450" height="7" rx="3.5" fill="url(#accent)"/><rect x="34" y="36" width="125" height="28" rx="14" fill="url(#accent)"/><text x="96" y="55" text-anchor="middle" fill="#fff" font-family="Arial" font-size="12" font-weight="700">PRODUCT</text><text x="34" y="110" fill="#fff" font-family="Arial" font-size="31" font-weight="800">Lightweight JavaScript Library</text><text x="34" y="148" fill="#fff" fill-opacity=".62" font-family="Arial" font-size="15">Build reactive interfaces with a tiny, elegant runtime.</text><rect x="34" y="198" width="150" height="46" rx="15" fill="url(#accent)"/><text x="109" y="227" text-anchor="middle" fill="#fff" font-family="Arial" font-size="13" font-weight="700">EXPLORE PROJECT →</text><text x="34" y="276" fill="#fff" fill-opacity=".35" font-family="Arial" font-size="11">OLOVA / PRODUCT EXPERIENCE</text></g>
<g transform="translate(570,116)" filter="url(#shadow)"><rect width="520" height="380" rx="28" fill="#101321" stroke="#fff" stroke-opacity=".15"/><rect width="520" height="46" rx="28" fill="#191C2D"/><circle cx="25" cy="23" r="6" fill="#FF6B6B"/><circle cx="45" cy="23" r="6" fill="#FFD166"/><circle cx="65" cy="23" r="6" fill="#52D273"/><rect x="102" y="14" width="170" height="18" rx="9" fill="#fff" fill-opacity=".06"/>
<rect x="26" y="72" width="468" height="92" rx="18" fill="url(#accent)" fill-opacity=".92"/><text x="52" y="105" fill="#fff" fill-opacity=".72" font-family="Arial" font-size="11">LIGHTWEIGHT JAVASCRIPT LIBRARY</text><text x="52" y="139" fill="#fff" font-family="Arial" font-size="25" font-weight="800">Olova</text>
<rect x="26" y="186" width="220" height="168" rx="18" fill="#191C2D"/><rect x="268" y="186" width="226" height="78" rx="18" fill="#191C2D"/><rect x="268" y="276" width="226" height="78" rx="18" fill="#191C2D"/>
<text x="48" y="218" fill="#fff" fill-opacity=".45" font-family="Arial" font-size="11">KEY METRIC</text><text x="48" y="260" fill="#fff" font-family="Arial" font-size="42" font-weight="800">4kb</text><rect x="48" y="286" width="154" height="10" rx="5" fill="url(#accent)"/><rect x="48" y="308" width="124" height="7" rx="3.5" fill="#fff" fill-opacity=".12"/>
<text x="290" y="215" fill="#fff" fill-opacity=".45" font-family="Arial" font-size="11">FEATURE</text><text x="290" y="244" fill="#fff" font-family="Arial" font-size="20" font-weight="700">0 deps</text><text x="290" y="305" fill="#fff" fill-opacity=".45" font-family="Arial" font-size="11">STATUS</text><text x="290" y="334" fill="#FACC15" font-family="Arial" font-size="20" font-weight="700">Reactive</text></g></g>
<text x="72" y="566" fill="#fff" fill-opacity=".35" font-family="Arial" font-size="11" letter-spacing="3">OLOVA  •  PRODUCT SHOWCASE</text><rect x="18" y="626" width="98" height="28" rx="14" fill="#fff" fill-opacity=".08"/><text x="67" y="645" text-anchor="middle" fill="#fff" fill-opacity=".78" font-family="Arial" font-size="11">JavaScript</text><rect x="130" y="626" width="98" height="28" rx="14" fill="#fff" fill-opacity=".08"/><text x="179" y="645" text-anchor="middle" fill="#fff" fill-opacity=".78" font-family="Arial" font-size="11">Vite</text><rect x="242" y="626" width="98" height="28" rx="14" fill="#fff" fill-opacity=".08"/><text x="291" y="645" text-anchor="middle" fill="#fff" fill-opacity=".78" font-family="Arial" font-size="11">Rollup</text>
</svg>